<?xml version="1.0" encoding="UTF-8" standalone="no"?>
<!-- Created with Inkscape (http://www.inkscape.org/) -->

<svg
   width="144.6942mm"
   height="144.6662mm"
   viewBox="0 0 144.6942 144.6662"
   version="1.1"
   id="svg1"
   xml:space="preserve"
   inkscape:version="1.3.2 (091e20e, 2023-11-25, custom)"
   sodipodi:docname="FabLabLogo.svg"
   xmlns:inkscape="http://www.inkscape.org/namespaces/inkscape"
   xmlns:sodipodi="http://sodipodi.sourceforge.net/DTD/sodipodi-0.dtd"
   xmlns="http://www.w3.org/2000/svg"
   xmlns:svg="http://www.w3.org/2000/svg"><sodipodi:namedview
     id="namedview1"
     pagecolor="#ffffff"
     bordercolor="#000000"
     borderopacity="0.25"
     inkscape:showpageshadow="2"
     inkscape:pageopacity="0.0"
     inkscape:pagecheckerboard="0"
     inkscape:deskcolor="#d1d1d1"
     inkscape:document-units="mm"
     inkscape:zoom="1.0449705"
     inkscape:cx="273.21345"
     inkscape:cy="329.67438"
     inkscape:window-width="2560"
     inkscape:window-height="1369"
     inkscape:window-x="-8"
     inkscape:window-y="-8"
     inkscape:window-maximized="1"
     inkscape:current-layer="layer1" /><defs
     id="defs1" /><g
     inkscape:label="Lag 1"
     inkscape:groupmode="layer"
     id="layer1"
     transform="translate(-32.603026,-61.175475)"><g
       id="g2"
       transform="matrix(0.26458333,0,0,0.26458333,29.957193,58.529642)"><g
         id="g3"
         transform="translate(-18.822,2.708864)"
         style="fill:#ffffff"><path
           id="path5"
           fill="#0e9a48"
           d="m 236.824,493.146 v -65.203 c 2.34,-0.895 4.623,-1.963 6.815,-3.257 31.087,-18.327 34.355,-70.395 7.293,-116.288 -27.059,-45.895 -74.196,-68.24 -105.282,-49.912 -31.087,18.329 -34.354,70.394 -7.297,116.288 4.366,7.403 9.258,14.182 14.517,20.287 V 443.5 L 85.868,405.156 V 165.002 L 62.383,149.499 c -21.394,38.979 -33.561,83.741 -33.561,131.343 0,147.904 117.359,268.317 264.08,273.177 l 0.025,-28.178 z"
           style="fill:#ffffff" /><path
           id="path7"
           fill="#cb2026"
           d="m 159.006,111.537 40.952,24.27 c -0.807,6.729 -0.833,14.137 -0.807,16.684 0.375,36.085 49.245,63.517 102.52,62.965 53.275,-0.552 91.219,-32.827 90.95,-64.58 -0.304,-36.084 -35.004,-64.336 -88.259,-65.924 -18.029,-0.538 -35.408,3.062 -43.322,4.574 L 231.172,70.42 302.209,29.889 511.621,151.614 535.638,138.431 C 512.533,100.441 479.811,67.564 438.557,43.812 310.379,-29.985 147.468,11.642 70.052,136.37 l 23.821,15.042 z"
           style="fill:#ffffff" /><path
           id="path9"
           fill="#35469d"
           d="m 518.687,243.843 -44.532,23.277 c -1.614,-0.27 -11.499,-9.522 -13.723,-10.764 -31.526,-17.563 -77.938,5.659 -103.867,52.201 -25.93,46.54 -23.719,99.753 7.805,117.32 31.527,17.562 78.47,-3.509 104.403,-50.049 4.182,-7.508 9.767,-24.938 12.378,-32.559 l 37.938,-21.932 -0.225,83.273 -208.851,121.97 0.101,27.481 c 44.448,-1.233 89.223,-13.354 130.301,-37.406 C 568.045,441.919 612.652,279.8 542.709,150.734 l -24.022,13.191 z"
           style="fill:#ffffff" /></g><path
         id="path11"
         fill="none"
         d="M 366.263,546.4839"
         stroke="#010101" /><g
         fill="#010101"
         id="g1" /></g></g></svg>